<svg xmlns="http://www.w3.org/2000/svg" viewBox="0 0 660 480" width="660" height="480" role="img">
  <rect width="660" height="480" fill="#FFF3DC"/>

  <circle cx="556" cy="96" r="118" fill="#FFC24D" opacity=".3"/>
  <g fill="#FFA000" opacity="0.45"><circle cx="48" cy="56" r="3.4"/><circle cx="68" cy="56" r="3.4"/><circle cx="88" cy="56" r="3.4"/><circle cx="108" cy="56" r="3.4"/><circle cx="48" cy="76" r="3.4"/><circle cx="68" cy="76" r="3.4"/><circle cx="88" cy="76" r="3.4"/><circle cx="108" cy="76" r="3.4"/><circle cx="48" cy="96" r="3.4"/><circle cx="68" cy="96" r="3.4"/><circle cx="88" cy="96" r="3.4"/><circle cx="108" cy="96" r="3.4"/></g>
  <!-- semáforo -->
  <g transform="translate(456,232)">
    <rect x="-56" y="-142" width="112" height="238" rx="26" fill="#0F2A47"/>
    <circle cx="0" cy="-92" r="30" fill="#FF6B57"/>
    <circle cx="0" cy="-16" r="30" fill="#FFA000"/>
    <circle cx="0" cy="60"  r="30" fill="#00A88F" opacity=".35"/>
    <rect x="-14" y="96" width="28" height="96" rx="10" fill="#0F2A47"/>
    <path d="M74,-92 a34,34 0 0 1 0,0" fill="none"/>
    <g stroke="#FFA000" stroke-width="6" stroke-linecap="round" opacity=".65">
      <path d="M46,-40 h22"/><path d="M46,-16 h30"/><path d="M46,8 h22"/>
    </g>
  </g>
  
  <g transform="translate(178,252) scale(1.12)">
    <rect x="-8" y="18" width="16" height="20" rx="6" fill="#F0C9A4"/>
    <path d="M-22,74 L-68,-2" stroke="#F0C9A4" stroke-width="16" stroke-linecap="round"/>
    <path d="M22,74 L54,108" stroke="#F0C9A4" stroke-width="16" stroke-linecap="round"/>
    <circle cx="-68" cy="-2" r="9.5" fill="#F0C9A4"/>
    <circle cx="54" cy="108" r="9.5" fill="#F0C9A4"/>
    <path d="M-34,118 v-52 a34,34 0 0 1 68,0 v52 z" fill="#1461D6"/>
    <g transform="scale(1)">
      <circle cx="0" cy="0" r="31" fill="#F0C9A4"/>
      <path d="M-31,-4 a31,31 0 0 1 62,0 q-10,-12 -31,-12 T-31,-4 z" fill="#2C2320"/>
      
      <circle cx="-11" cy="4" r="3.4" fill="#12202F"/>
      <circle cx="11"  cy="4" r="3.4" fill="#12202F"/>
      <path d="M-9,16 q9,8 18,0" fill="none" stroke="#12202F" stroke-width="3" stroke-linecap="round"/>
    </g>
  </g>
  
  <g transform="translate(190,408) scale(0.68)">
    <rect x="-90" y="-40" width="180" height="80" rx="10" fill="#EEF2F7" stroke="#D8DFE9" stroke-width="3"/>
    <circle cx="-72" cy="-24" r="2.6" fill="#D8DFE9"/><circle cx="-72" cy="-8" r="2.6" fill="#D8DFE9"/><circle cx="-72" cy="8" r="2.6" fill="#D8DFE9"/><circle cx="-72" cy="24" r="2.6" fill="#D8DFE9"/><circle cx="-54" cy="-24" r="2.6" fill="#D8DFE9"/><circle cx="-54" cy="-8" r="2.6" fill="#D8DFE9"/><circle cx="-54" cy="8" r="2.6" fill="#D8DFE9"/><circle cx="-54" cy="24" r="2.6" fill="#D8DFE9"/><circle cx="-36" cy="-24" r="2.6" fill="#D8DFE9"/><circle cx="-36" cy="-8" r="2.6" fill="#D8DFE9"/><circle cx="-36" cy="8" r="2.6" fill="#D8DFE9"/><circle cx="-36" cy="24" r="2.6" fill="#D8DFE9"/><circle cx="-18" cy="-24" r="2.6" fill="#D8DFE9"/><circle cx="-18" cy="-8" r="2.6" fill="#D8DFE9"/><circle cx="-18" cy="8" r="2.6" fill="#D8DFE9"/><circle cx="-18" cy="24" r="2.6" fill="#D8DFE9"/><circle cx="0" cy="-24" r="2.6" fill="#D8DFE9"/><circle cx="0" cy="-8" r="2.6" fill="#D8DFE9"/><circle cx="0" cy="8" r="2.6" fill="#D8DFE9"/><circle cx="0" cy="24" r="2.6" fill="#D8DFE9"/><circle cx="18" cy="-24" r="2.6" fill="#D8DFE9"/><circle cx="18" cy="-8" r="2.6" fill="#D8DFE9"/><circle cx="18" cy="8" r="2.6" fill="#D8DFE9"/><circle cx="18" cy="24" r="2.6" fill="#D8DFE9"/><circle cx="36" cy="-24" r="2.6" fill="#D8DFE9"/><circle cx="36" cy="-8" r="2.6" fill="#D8DFE9"/><circle cx="36" cy="8" r="2.6" fill="#D8DFE9"/><circle cx="36" cy="24" r="2.6" fill="#D8DFE9"/><circle cx="54" cy="-24" r="2.6" fill="#D8DFE9"/><circle cx="54" cy="-8" r="2.6" fill="#D8DFE9"/><circle cx="54" cy="8" r="2.6" fill="#D8DFE9"/><circle cx="54" cy="24" r="2.6" fill="#D8DFE9"/><circle cx="72" cy="-24" r="2.6" fill="#D8DFE9"/><circle cx="72" cy="-8" r="2.6" fill="#D8DFE9"/><circle cx="72" cy="8" r="2.6" fill="#D8DFE9"/><circle cx="72" cy="24" r="2.6" fill="#D8DFE9"/>
    <path d="M-54,-8 H-18" stroke="#FF6B57" stroke-width="5" stroke-linecap="round"/>
    <rect x="-14" y="-16" width="34" height="16" rx="8" fill="#FFC24D"/>
    <path d="M24,-8 H54" stroke="#1461D6" stroke-width="5" stroke-linecap="round"/>
    <circle cx="60" cy="-8" r="11" fill="#FFA000"/>
    <circle cx="60" cy="-8" r="19" fill="none" stroke="#FFA000" stroke-width="3" opacity=".45"/>
  </g>

</svg>
