<svg xmlns="http://www.w3.org/2000/svg" viewBox="0 0 660 480" width="660" height="480" role="img">
  <rect width="660" height="480" fill="#E4F7F3"/>

  <circle cx="110" cy="120" r="130" fill="#7FD9CB" opacity=".38"/>
  <g fill="#00A88F" opacity="0.35"><circle cx="408" cy="56" r="3.4"/><circle cx="428" cy="56" r="3.4"/><circle cx="448" cy="56" r="3.4"/><circle cx="408" cy="76" r="3.4"/><circle cx="428" cy="76" r="3.4"/><circle cx="448" cy="76" r="3.4"/><circle cx="408" cy="96" r="3.4"/><circle cx="428" cy="96" r="3.4"/><circle cx="448" cy="96" r="3.4"/></g>
  <path d="M40,404 C170,404 150,318 268,318 S420,404 560,392"
        fill="none" stroke="#0F2A47" stroke-width="26" stroke-linecap="round" opacity=".9"/>
  <path d="M40,404 C170,404 150,318 268,318 S420,404 560,392"
        fill="none" stroke="#FFFFFF" stroke-width="5" stroke-dasharray="18 20" stroke-linecap="round"/>
  
  <g transform="translate(300,249.85000000000002) scale(1.15)">
    <path d="M0,-52 V-30" stroke="#0F2A47" stroke-width="5" stroke-linecap="round"/>
    <circle cx="0" cy="-58" r="8" fill="#FFA000"/>
    <rect x="-58" y="-32" width="116" height="72" rx="18" fill="#1461D6"/>
    <rect x="-40" y="-18" width="80" height="34" rx="12" fill="#FFFFFF"/>
    <circle cx="-20" cy="0" r="8.5" fill="#0F2A47"/>
    <circle cx="20"  cy="0" r="8.5" fill="#0F2A47"/>
    <circle cx="-17" cy="-3" r="3" fill="#FFFFFF"/>
    <circle cx="23"  cy="-3" r="3" fill="#FFFFFF"/>
    <rect x="-16" y="24" width="32" height="7" rx="3.5" fill="#0F2A47" opacity=".35"/>
    <circle cx="-52" cy="44" r="17" fill="#0F2A47"/>
    <circle cx="52"  cy="44" r="17" fill="#0F2A47"/>
    <circle cx="-52" cy="44" r="6"  fill="#D8DFE9"/>
    <circle cx="52"  cy="44" r="6"  fill="#D8DFE9"/>
  </g>
  
  <g transform="translate(546,134.48000000000002) scale(0.72)">
    <ellipse cx="0" cy="341" rx="40.92" ry="8.06" fill="#0F2A47" opacity=".12"/>
    
    <path d="M-21.526400000000002,164.92000000000002 L-21.956928,248" stroke="#0F2A47" stroke-width="26.04" stroke-linecap="round"/>
    <circle cx="-21.956928" cy="248" r="11.9784" fill="#0F2A47"/>
    <path d="M-21.956928,248 L-20.234816000000002,331.7" stroke="#0F2A47" stroke-width="23.56" stroke-linecap="round"/>
    <rect x="-32.783616" y="331.7" width="28.52" height="9.299999999999999" rx="4.185" fill="#0F2A47"/>
    <path d="M21.526400000000002,164.92000000000002 L21.956928,248" stroke="#0F2A47" stroke-width="26.04" stroke-linecap="round"/>
    <circle cx="21.956928" cy="248" r="11.9784" fill="#0F2A47"/>
    <path d="M21.956928,248 L20.234816000000002,331.7" stroke="#0F2A47" stroke-width="23.56" stroke-linecap="round"/>
    <rect x="7.686016000000002" y="331.7" width="28.52" height="9.299999999999999" rx="4.185" fill="#0F2A47"/>
    
    <path d="M-40.92,55.800000000000004 L-85.25,-11.500999999999983 L-97.154,-69.83059999999996"
          fill="none" stroke="#FF6B57" stroke-width="18.599999999999998" stroke-linecap="round" stroke-linejoin="round"/>
    <circle cx="-97.154" cy="-69.83059999999996" r="11.78" fill="#FF6B57"/>
    <path d="M40.92,55.800000000000004 L42.78,136.4 L41.54,195.92"
          fill="none" stroke="#FF6B57" stroke-width="18.599999999999998" stroke-linecap="round" stroke-linejoin="round"/>
    <circle cx="41.54" cy="195.92" r="11.78" fill="#FF6B57"/>
    <rect x="-6.82" y="19.22" width="13.64" height="39.68000000000001" rx="4.96" fill="#0F2A47"/>
    <rect x="-47.4672" y="52.7" width="94.9344" height="120.9" rx="21.080000000000002" fill="#FF6B57"/>
    <rect x="-29.429664" y="76.88000000000001" width="58.859328" height="48.36000000000001" rx="8.06" fill="#12202F"/>
    <circle cx="-14.126238719999998" cy="101.06" r="4.6499999999999995" fill="#FF6B57"/><circle cx="0" cy="101.06" r="4.6499999999999995" fill="#00A88F"/><circle cx="14.126238719999998" cy="101.06" r="4.6499999999999995" fill="#FFA000"/>
    <g transform="scale(1)">
      <rect x="-33" y="-30" width="66" height="58" rx="19" fill="#0F2A47"/>
      <rect x="-24" y="-21" width="48" height="35" rx="13" fill="#12202F"/>
      <circle cx="-11" cy="-3" r="7.5" fill="#00A88F"/>
      <circle cx="11"  cy="-3" r="7.5" fill="#00A88F"/>
      <circle cx="-8.5" cy="-5.5" r="2.4" fill="#FFFFFF"/>
      <circle cx="13.5" cy="-5.5" r="2.4" fill="#FFFFFF"/>
      
      <path d="M0,-30 L0,-45" stroke="#0F2A47" stroke-width="5" stroke-linecap="round"/>
      <circle cx="0" cy="-50" r="7" fill="#00A88F"/>
      <circle cx="0" cy="-50" r="12" fill="#00A88F" opacity=".22"/>
    </g>
  </g>
  <g transform="translate(120,196)">
    <rect x="-64" y="-56" width="128" height="112" rx="16" fill="#FFFFFF" opacity=".92"/>
    <path d="M-40,-24 h40 M-40,0 h64 M-40,24 h30" stroke="#0F2A47" stroke-width="7" stroke-linecap="round" opacity=".8"/>
    <circle cx="34" cy="-24" r="10" fill="#00A88F"/>
  </g>

</svg>
